<?xml version="1.0" encoding="UTF-8"?>
<svg id="Calque_1" xmlns="http://www.w3.org/2000/svg" version="1.1" viewBox="0 0 1366 860.45">
  <!-- Generator: Adobe Illustrator 30.1.0, SVG Export Plug-In . SVG Version: 2.1.1 Build 136)  -->
  <defs>
    <style>
      .st0 {
        fill: #d0dce7;
      }

      .st1 {
        fill: #9dacfb;
      }

      .st2 {
        fill: #536ae4;
      }
    </style>
  </defs>
  <g>
    <polygon class="st2" points="75.89 150.91 113.83 129.99 113.83 86.33 75.89 107.25 75.89 150.91"/>
    <polygon class="st2" points="37.94 64.58 75.89 43.66 75.89 0 37.94 20.92 37.94 64.58"/>
    <polygon class="st1" points="37.94 107.98 0 87.06 0 43.4 37.94 64.32 37.94 107.98"/>
    <polygon class="st0" points="75.89 172.09 37.94 151.17 37.94 107.51 75.89 128.43 75.89 172.09"/>
  </g>
  <g>
    <polygon class="st2" points="189.72 150.91 227.67 129.99 227.67 86.33 189.72 107.25 189.72 150.91"/>
    <polygon class="st2" points="151.78 64.58 189.72 43.66 189.72 0 151.78 20.92 151.78 64.58"/>
    <polygon class="st1" points="151.78 107.98 113.83 87.06 113.83 43.4 151.78 64.32 151.78 107.98"/>
    <polygon class="st0" points="189.72 172.09 151.78 151.17 151.78 107.51 189.72 128.43 189.72 172.09"/>
  </g>
  <g>
    <polygon class="st2" points="303.56 150.91 341.5 129.99 341.5 86.33 303.56 107.25 303.56 150.91"/>
    <polygon class="st2" points="265.61 64.58 303.56 43.66 303.56 0 265.61 20.92 265.61 64.58"/>
    <polygon class="st1" points="265.61 107.98 227.67 87.06 227.67 43.4 265.61 64.32 265.61 107.98"/>
    <polygon class="st0" points="303.56 172.09 265.61 151.17 265.61 107.51 303.56 128.43 303.56 172.09"/>
  </g>
  <g>
    <polygon class="st2" points="417.39 150.91 455.33 129.99 455.33 86.33 417.39 107.25 417.39 150.91"/>
    <polygon class="st2" points="379.44 64.58 417.39 43.66 417.39 0 379.44 20.92 379.44 64.58"/>
    <polygon class="st1" points="379.44 107.98 341.5 87.06 341.5 43.4 379.44 64.32 379.44 107.98"/>
    <polygon class="st0" points="417.39 172.09 379.44 151.17 379.44 107.51 417.39 128.43 417.39 172.09"/>
  </g>
  <g>
    <polygon class="st2" points="531.22 150.91 569.17 129.99 569.17 86.33 531.22 107.25 531.22 150.91"/>
    <polygon class="st2" points="493.28 64.58 531.22 43.66 531.22 0 493.28 20.92 493.28 64.58"/>
    <polygon class="st1" points="493.28 107.98 455.33 87.06 455.33 43.4 493.28 64.32 493.28 107.98"/>
    <polygon class="st0" points="531.22 172.09 493.28 151.17 493.28 107.51 531.22 128.43 531.22 172.09"/>
  </g>
  <g>
    <polygon class="st2" points="645.06 150.91 683 129.99 683 86.33 645.06 107.25 645.06 150.91"/>
    <polygon class="st2" points="607.11 64.58 645.06 43.66 645.06 0 607.11 20.92 607.11 64.58"/>
    <polygon class="st1" points="607.11 107.98 569.17 87.06 569.17 43.4 607.11 64.32 607.11 107.98"/>
    <polygon class="st0" points="645.06 172.09 607.11 151.17 607.11 107.51 645.06 128.43 645.06 172.09"/>
  </g>
  <g>
    <polygon class="st2" points="758.89 150.91 796.83 129.99 796.83 86.33 758.89 107.25 758.89 150.91"/>
    <polygon class="st2" points="720.94 64.58 758.89 43.66 758.89 0 720.94 20.92 720.94 64.58"/>
    <polygon class="st1" points="720.94 107.98 683 87.06 683 43.4 720.94 64.32 720.94 107.98"/>
    <polygon class="st0" points="758.89 172.09 720.94 151.17 720.94 107.51 758.89 128.43 758.89 172.09"/>
  </g>
  <g>
    <polygon class="st2" points="872.72 150.91 910.67 129.99 910.67 86.33 872.72 107.25 872.72 150.91"/>
    <polygon class="st2" points="834.78 64.58 872.72 43.66 872.72 0 834.78 20.92 834.78 64.58"/>
    <polygon class="st1" points="834.78 107.98 796.83 87.06 796.83 43.4 834.78 64.32 834.78 107.98"/>
    <polygon class="st0" points="872.72 172.09 834.78 151.17 834.78 107.51 872.72 128.43 872.72 172.09"/>
  </g>
  <g>
    <polygon class="st2" points="986.56 150.91 1024.5 129.99 1024.5 86.33 986.56 107.25 986.56 150.91"/>
    <polygon class="st2" points="948.61 64.58 986.56 43.66 986.56 0 948.61 20.92 948.61 64.58"/>
    <polygon class="st1" points="948.61 107.98 910.67 87.06 910.67 43.4 948.61 64.32 948.61 107.98"/>
    <polygon class="st0" points="986.56 172.09 948.61 151.17 948.61 107.51 986.56 128.43 986.56 172.09"/>
  </g>
  <g>
    <polygon class="st2" points="1100.39 150.91 1138.33 129.99 1138.33 86.33 1100.39 107.25 1100.39 150.91"/>
    <polygon class="st2" points="1062.44 64.58 1100.39 43.66 1100.39 0 1062.44 20.92 1062.44 64.58"/>
    <polygon class="st1" points="1062.44 107.98 1024.5 87.06 1024.5 43.4 1062.44 64.32 1062.44 107.98"/>
    <polygon class="st0" points="1100.39 172.09 1062.44 151.17 1062.44 107.51 1100.39 128.43 1100.39 172.09"/>
  </g>
  <g>
    <polygon class="st2" points="1214.22 150.91 1252.17 129.99 1252.17 86.33 1214.22 107.25 1214.22 150.91"/>
    <polygon class="st2" points="1176.28 64.58 1214.22 43.66 1214.22 0 1176.28 20.92 1176.28 64.58"/>
    <polygon class="st1" points="1176.28 107.98 1138.33 87.06 1138.33 43.4 1176.28 64.32 1176.28 107.98"/>
    <polygon class="st0" points="1214.22 172.09 1176.28 151.17 1176.28 107.51 1214.22 128.43 1214.22 172.09"/>
  </g>
  <g>
    <polygon class="st2" points="1328.06 150.91 1366 129.99 1366 86.33 1328.06 107.25 1328.06 150.91"/>
    <polygon class="st2" points="1290.11 64.58 1328.06 43.66 1328.06 0 1290.11 20.92 1290.11 64.58"/>
    <polygon class="st1" points="1290.11 107.98 1252.17 87.06 1252.17 43.4 1290.11 64.32 1290.11 107.98"/>
    <polygon class="st0" points="1328.06 172.09 1290.11 151.17 1290.11 107.51 1328.06 128.43 1328.06 172.09"/>
  </g>
  <g>
    <polygon class="st2" points="75.89 323 113.83 302.08 113.83 258.42 75.89 279.34 75.89 323"/>
    <polygon class="st2" points="37.94 236.67 75.89 215.75 75.89 172.09 37.94 193.01 37.94 236.67"/>
    <polygon class="st1" points="37.94 280.07 0 259.15 0 215.5 37.94 236.41 37.94 280.07"/>
    <polygon class="st0" points="75.89 344.18 37.94 323.26 37.94 279.6 75.89 300.52 75.89 344.18"/>
  </g>
  <g>
    <polygon class="st2" points="189.72 323 227.67 302.08 227.67 258.42 189.72 279.34 189.72 323"/>
    <polygon class="st2" points="151.78 236.67 189.72 215.75 189.72 172.09 151.78 193.01 151.78 236.67"/>
    <polygon class="st1" points="151.78 280.07 113.83 259.15 113.83 215.5 151.78 236.41 151.78 280.07"/>
    <polygon class="st0" points="189.72 344.18 151.78 323.26 151.78 279.6 189.72 300.52 189.72 344.18"/>
  </g>
  <g>
    <polygon class="st2" points="303.56 323 341.5 302.08 341.5 258.42 303.56 279.34 303.56 323"/>
    <polygon class="st2" points="265.61 236.67 303.56 215.75 303.56 172.09 265.61 193.01 265.61 236.67"/>
    <polygon class="st1" points="265.61 280.07 227.67 259.15 227.67 215.5 265.61 236.41 265.61 280.07"/>
    <polygon class="st0" points="303.56 344.18 265.61 323.26 265.61 279.6 303.56 300.52 303.56 344.18"/>
  </g>
  <g>
    <polygon class="st2" points="417.39 323 455.33 302.08 455.33 258.42 417.39 279.34 417.39 323"/>
    <polygon class="st2" points="379.44 236.67 417.39 215.75 417.39 172.09 379.44 193.01 379.44 236.67"/>
    <polygon class="st1" points="379.44 280.07 341.5 259.15 341.5 215.5 379.44 236.41 379.44 280.07"/>
    <polygon class="st0" points="417.39 344.18 379.44 323.26 379.44 279.6 417.39 300.52 417.39 344.18"/>
  </g>
  <g>
    <polygon class="st2" points="531.22 323 569.17 302.08 569.17 258.42 531.22 279.34 531.22 323"/>
    <polygon class="st2" points="493.28 236.67 531.22 215.75 531.22 172.09 493.28 193.01 493.28 236.67"/>
    <polygon class="st1" points="493.28 280.07 455.33 259.15 455.33 215.5 493.28 236.41 493.28 280.07"/>
    <polygon class="st0" points="531.22 344.18 493.28 323.26 493.28 279.6 531.22 300.52 531.22 344.18"/>
  </g>
  <g>
    <polygon class="st2" points="645.06 323 683 302.08 683 258.42 645.06 279.34 645.06 323"/>
    <polygon class="st2" points="607.11 236.67 645.06 215.75 645.06 172.09 607.11 193.01 607.11 236.67"/>
    <polygon class="st1" points="607.11 280.07 569.17 259.15 569.17 215.5 607.11 236.41 607.11 280.07"/>
    <polygon class="st0" points="645.06 344.18 607.11 323.26 607.11 279.6 645.06 300.52 645.06 344.18"/>
  </g>
  <g>
    <polygon class="st2" points="758.89 323 796.83 302.08 796.83 258.42 758.89 279.34 758.89 323"/>
    <polygon class="st2" points="720.94 236.67 758.89 215.75 758.89 172.09 720.94 193.01 720.94 236.67"/>
    <polygon class="st1" points="720.94 280.07 683 259.15 683 215.5 720.94 236.41 720.94 280.07"/>
    <polygon class="st0" points="758.89 344.18 720.94 323.26 720.94 279.6 758.89 300.52 758.89 344.18"/>
  </g>
  <g>
    <polygon class="st2" points="872.72 323 910.67 302.08 910.67 258.42 872.72 279.34 872.72 323"/>
    <polygon class="st2" points="834.78 236.67 872.72 215.75 872.72 172.09 834.78 193.01 834.78 236.67"/>
    <polygon class="st1" points="834.78 280.07 796.83 259.15 796.83 215.5 834.78 236.41 834.78 280.07"/>
    <polygon class="st0" points="872.72 344.18 834.78 323.26 834.78 279.6 872.72 300.52 872.72 344.18"/>
  </g>
  <g>
    <polygon class="st2" points="986.56 323 1024.5 302.08 1024.5 258.42 986.56 279.34 986.56 323"/>
    <polygon class="st2" points="948.61 236.67 986.56 215.75 986.56 172.09 948.61 193.01 948.61 236.67"/>
    <polygon class="st1" points="948.61 280.07 910.67 259.15 910.67 215.5 948.61 236.41 948.61 280.07"/>
    <polygon class="st0" points="986.56 344.18 948.61 323.26 948.61 279.6 986.56 300.52 986.56 344.18"/>
  </g>
  <g>
    <polygon class="st2" points="1100.39 323 1138.33 302.08 1138.33 258.42 1100.39 279.34 1100.39 323"/>
    <polygon class="st2" points="1062.44 236.67 1100.39 215.75 1100.39 172.09 1062.44 193.01 1062.44 236.67"/>
    <polygon class="st1" points="1062.44 280.07 1024.5 259.15 1024.5 215.5 1062.44 236.41 1062.44 280.07"/>
    <polygon class="st0" points="1100.39 344.18 1062.44 323.26 1062.44 279.6 1100.39 300.52 1100.39 344.18"/>
  </g>
  <g>
    <polygon class="st2" points="1214.22 323 1252.17 302.08 1252.17 258.42 1214.22 279.34 1214.22 323"/>
    <polygon class="st2" points="1176.28 236.67 1214.22 215.75 1214.22 172.09 1176.28 193.01 1176.28 236.67"/>
    <polygon class="st1" points="1176.28 280.07 1138.33 259.15 1138.33 215.5 1176.28 236.41 1176.28 280.07"/>
    <polygon class="st0" points="1214.22 344.18 1176.28 323.26 1176.28 279.6 1214.22 300.52 1214.22 344.18"/>
  </g>
  <g>
    <polygon class="st2" points="1328.06 323 1366 302.08 1366 258.42 1328.06 279.34 1328.06 323"/>
    <polygon class="st2" points="1290.11 236.67 1328.06 215.75 1328.06 172.09 1290.11 193.01 1290.11 236.67"/>
    <polygon class="st1" points="1290.11 280.07 1252.17 259.15 1252.17 215.5 1290.11 236.41 1290.11 280.07"/>
    <polygon class="st0" points="1328.06 344.18 1290.11 323.26 1290.11 279.6 1328.06 300.52 1328.06 344.18"/>
  </g>
  <g>
    <polygon class="st2" points="75.89 495.09 113.83 474.17 113.83 430.51 75.89 451.43 75.89 495.09"/>
    <polygon class="st2" points="37.94 408.76 75.89 387.84 75.89 344.18 37.94 365.1 37.94 408.76"/>
    <polygon class="st1" points="37.94 452.16 0 431.24 0 387.59 37.94 408.5 37.94 452.16"/>
    <polygon class="st0" points="75.89 516.27 37.94 495.35 37.94 451.69 75.89 472.61 75.89 516.27"/>
  </g>
  <g>
    <polygon class="st2" points="189.72 495.09 227.67 474.17 227.67 430.51 189.72 451.43 189.72 495.09"/>
    <polygon class="st2" points="151.78 408.76 189.72 387.84 189.72 344.18 151.78 365.1 151.78 408.76"/>
    <polygon class="st1" points="151.78 452.16 113.83 431.24 113.83 387.59 151.78 408.5 151.78 452.16"/>
    <polygon class="st0" points="189.72 516.27 151.78 495.35 151.78 451.69 189.72 472.61 189.72 516.27"/>
  </g>
  <g>
    <polygon class="st2" points="303.56 495.09 341.5 474.17 341.5 430.51 303.56 451.43 303.56 495.09"/>
    <polygon class="st2" points="265.61 408.76 303.56 387.84 303.56 344.18 265.61 365.1 265.61 408.76"/>
    <polygon class="st1" points="265.61 452.16 227.67 431.24 227.67 387.59 265.61 408.5 265.61 452.16"/>
    <polygon class="st0" points="303.56 516.27 265.61 495.35 265.61 451.69 303.56 472.61 303.56 516.27"/>
  </g>
  <g>
    <polygon class="st2" points="417.39 495.09 455.33 474.17 455.33 430.51 417.39 451.43 417.39 495.09"/>
    <polygon class="st2" points="379.44 408.76 417.39 387.84 417.39 344.18 379.44 365.1 379.44 408.76"/>
    <polygon class="st1" points="379.44 452.16 341.5 431.24 341.5 387.59 379.44 408.5 379.44 452.16"/>
    <polygon class="st0" points="417.39 516.27 379.44 495.35 379.44 451.69 417.39 472.61 417.39 516.27"/>
  </g>
  <g>
    <polygon class="st2" points="531.22 495.09 569.17 474.17 569.17 430.51 531.22 451.43 531.22 495.09"/>
    <polygon class="st2" points="493.28 408.76 531.22 387.84 531.22 344.18 493.28 365.1 493.28 408.76"/>
    <polygon class="st1" points="493.28 452.16 455.33 431.24 455.33 387.59 493.28 408.5 493.28 452.16"/>
    <polygon class="st0" points="531.22 516.27 493.28 495.35 493.28 451.69 531.22 472.61 531.22 516.27"/>
  </g>
  <g>
    <polygon class="st2" points="645.06 495.09 683 474.17 683 430.51 645.06 451.43 645.06 495.09"/>
    <polygon class="st2" points="607.11 408.76 645.06 387.84 645.06 344.18 607.11 365.1 607.11 408.76"/>
    <polygon class="st1" points="607.11 452.16 569.17 431.24 569.17 387.59 607.11 408.5 607.11 452.16"/>
    <polygon class="st0" points="645.06 516.27 607.11 495.35 607.11 451.69 645.06 472.61 645.06 516.27"/>
  </g>
  <g>
    <polygon class="st2" points="758.89 495.09 796.83 474.17 796.83 430.51 758.89 451.43 758.89 495.09"/>
    <polygon class="st2" points="720.94 408.76 758.89 387.84 758.89 344.18 720.94 365.1 720.94 408.76"/>
    <polygon class="st1" points="720.94 452.16 683 431.24 683 387.59 720.94 408.5 720.94 452.16"/>
    <polygon class="st0" points="758.89 516.27 720.94 495.35 720.94 451.69 758.89 472.61 758.89 516.27"/>
  </g>
  <g>
    <polygon class="st2" points="872.72 495.09 910.67 474.17 910.67 430.51 872.72 451.43 872.72 495.09"/>
    <polygon class="st2" points="834.78 408.76 872.72 387.84 872.72 344.18 834.78 365.1 834.78 408.76"/>
    <polygon class="st1" points="834.78 452.16 796.83 431.24 796.83 387.59 834.78 408.5 834.78 452.16"/>
    <polygon class="st0" points="872.72 516.27 834.78 495.35 834.78 451.69 872.72 472.61 872.72 516.27"/>
  </g>
  <g>
    <polygon class="st2" points="986.56 495.09 1024.5 474.17 1024.5 430.51 986.56 451.43 986.56 495.09"/>
    <polygon class="st2" points="948.61 408.76 986.56 387.84 986.56 344.18 948.61 365.1 948.61 408.76"/>
    <polygon class="st1" points="948.61 452.16 910.67 431.24 910.67 387.59 948.61 408.5 948.61 452.16"/>
    <polygon class="st0" points="986.56 516.27 948.61 495.35 948.61 451.69 986.56 472.61 986.56 516.27"/>
  </g>
  <g>
    <polygon class="st2" points="1100.39 495.09 1138.33 474.17 1138.33 430.51 1100.39 451.43 1100.39 495.09"/>
    <polygon class="st2" points="1062.44 408.76 1100.39 387.84 1100.39 344.18 1062.44 365.1 1062.44 408.76"/>
    <polygon class="st1" points="1062.44 452.16 1024.5 431.24 1024.5 387.59 1062.44 408.5 1062.44 452.16"/>
    <polygon class="st0" points="1100.39 516.27 1062.44 495.35 1062.44 451.69 1100.39 472.61 1100.39 516.27"/>
  </g>
  <g>
    <polygon class="st2" points="1214.22 495.09 1252.17 474.17 1252.17 430.51 1214.22 451.43 1214.22 495.09"/>
    <polygon class="st2" points="1176.28 408.76 1214.22 387.84 1214.22 344.18 1176.28 365.1 1176.28 408.76"/>
    <polygon class="st1" points="1176.28 452.16 1138.33 431.24 1138.33 387.59 1176.28 408.5 1176.28 452.16"/>
    <polygon class="st0" points="1214.22 516.27 1176.28 495.35 1176.28 451.69 1214.22 472.61 1214.22 516.27"/>
  </g>
  <g>
    <polygon class="st2" points="1328.06 495.09 1366 474.17 1366 430.51 1328.06 451.43 1328.06 495.09"/>
    <polygon class="st2" points="1290.11 408.76 1328.06 387.84 1328.06 344.18 1290.11 365.1 1290.11 408.76"/>
    <polygon class="st1" points="1290.11 452.16 1252.17 431.24 1252.17 387.59 1290.11 408.5 1290.11 452.16"/>
    <polygon class="st0" points="1328.06 516.27 1290.11 495.35 1290.11 451.69 1328.06 472.61 1328.06 516.27"/>
  </g>
  <g>
    <polygon class="st2" points="75.89 667.18 113.83 646.26 113.83 602.6 75.89 623.52 75.89 667.18"/>
    <polygon class="st2" points="37.94 580.85 75.89 559.93 75.89 516.27 37.94 537.19 37.94 580.85"/>
    <polygon class="st1" points="37.94 624.25 0 603.33 0 559.68 37.94 580.6 37.94 624.25"/>
    <polygon class="st0" points="75.89 688.36 37.94 667.44 37.94 623.79 75.89 644.7 75.89 688.36"/>
  </g>
  <g>
    <polygon class="st2" points="189.72 667.18 227.67 646.26 227.67 602.6 189.72 623.52 189.72 667.18"/>
    <polygon class="st2" points="151.78 580.85 189.72 559.93 189.72 516.27 151.78 537.19 151.78 580.85"/>
    <polygon class="st1" points="151.78 624.25 113.83 603.33 113.83 559.68 151.78 580.6 151.78 624.25"/>
    <polygon class="st0" points="189.72 688.36 151.78 667.44 151.78 623.79 189.72 644.7 189.72 688.36"/>
  </g>
  <g>
    <polygon class="st2" points="303.56 667.18 341.5 646.26 341.5 602.6 303.56 623.52 303.56 667.18"/>
    <polygon class="st2" points="265.61 580.85 303.56 559.93 303.56 516.27 265.61 537.19 265.61 580.85"/>
    <polygon class="st1" points="265.61 624.25 227.67 603.33 227.67 559.68 265.61 580.6 265.61 624.25"/>
    <polygon class="st0" points="303.56 688.36 265.61 667.44 265.61 623.79 303.56 644.7 303.56 688.36"/>
  </g>
  <g>
    <polygon class="st2" points="417.39 667.18 455.33 646.26 455.33 602.6 417.39 623.52 417.39 667.18"/>
    <polygon class="st2" points="379.44 580.85 417.39 559.93 417.39 516.27 379.44 537.19 379.44 580.85"/>
    <polygon class="st1" points="379.44 624.25 341.5 603.33 341.5 559.68 379.44 580.6 379.44 624.25"/>
    <polygon class="st0" points="417.39 688.36 379.44 667.44 379.44 623.79 417.39 644.7 417.39 688.36"/>
  </g>
  <g>
    <polygon class="st2" points="531.22 667.18 569.17 646.26 569.17 602.6 531.22 623.52 531.22 667.18"/>
    <polygon class="st2" points="493.28 580.85 531.22 559.93 531.22 516.27 493.28 537.19 493.28 580.85"/>
    <polygon class="st1" points="493.28 624.25 455.33 603.33 455.33 559.68 493.28 580.6 493.28 624.25"/>
    <polygon class="st0" points="531.22 688.36 493.28 667.44 493.28 623.79 531.22 644.7 531.22 688.36"/>
  </g>
  <g>
    <polygon class="st2" points="645.06 667.18 683 646.26 683 602.6 645.06 623.52 645.06 667.18"/>
    <polygon class="st2" points="607.11 580.85 645.06 559.93 645.06 516.27 607.11 537.19 607.11 580.85"/>
    <polygon class="st1" points="607.11 624.25 569.17 603.33 569.17 559.68 607.11 580.6 607.11 624.25"/>
    <polygon class="st0" points="645.06 688.36 607.11 667.44 607.11 623.79 645.06 644.7 645.06 688.36"/>
  </g>
  <g>
    <polygon class="st2" points="758.89 667.18 796.83 646.26 796.83 602.6 758.89 623.52 758.89 667.18"/>
    <polygon class="st2" points="720.94 580.85 758.89 559.93 758.89 516.27 720.94 537.19 720.94 580.85"/>
    <polygon class="st1" points="720.94 624.25 683 603.33 683 559.68 720.94 580.6 720.94 624.25"/>
    <polygon class="st0" points="758.89 688.36 720.94 667.44 720.94 623.79 758.89 644.7 758.89 688.36"/>
  </g>
  <g>
    <polygon class="st2" points="872.72 667.18 910.67 646.26 910.67 602.6 872.72 623.52 872.72 667.18"/>
    <polygon class="st2" points="834.78 580.85 872.72 559.93 872.72 516.27 834.78 537.19 834.78 580.85"/>
    <polygon class="st1" points="834.78 624.25 796.83 603.33 796.83 559.68 834.78 580.6 834.78 624.25"/>
    <polygon class="st0" points="872.72 688.36 834.78 667.44 834.78 623.79 872.72 644.7 872.72 688.36"/>
  </g>
  <g>
    <polygon class="st2" points="986.56 667.18 1024.5 646.26 1024.5 602.6 986.56 623.52 986.56 667.18"/>
    <polygon class="st2" points="948.61 580.85 986.56 559.93 986.56 516.27 948.61 537.19 948.61 580.85"/>
    <polygon class="st1" points="948.61 624.25 910.67 603.33 910.67 559.68 948.61 580.6 948.61 624.25"/>
    <polygon class="st0" points="986.56 688.36 948.61 667.44 948.61 623.79 986.56 644.7 986.56 688.36"/>
  </g>
  <g>
    <polygon class="st2" points="1100.39 667.18 1138.33 646.26 1138.33 602.6 1100.39 623.52 1100.39 667.18"/>
    <polygon class="st2" points="1062.44 580.85 1100.39 559.93 1100.39 516.27 1062.44 537.19 1062.44 580.85"/>
    <polygon class="st1" points="1062.44 624.25 1024.5 603.33 1024.5 559.68 1062.44 580.6 1062.44 624.25"/>
    <polygon class="st0" points="1100.39 688.36 1062.44 667.44 1062.44 623.79 1100.39 644.7 1100.39 688.36"/>
  </g>
  <g>
    <polygon class="st2" points="1214.22 667.18 1252.17 646.26 1252.17 602.6 1214.22 623.52 1214.22 667.18"/>
    <polygon class="st2" points="1176.28 580.85 1214.22 559.93 1214.22 516.27 1176.28 537.19 1176.28 580.85"/>
    <polygon class="st1" points="1176.28 624.25 1138.33 603.33 1138.33 559.68 1176.28 580.6 1176.28 624.25"/>
    <polygon class="st0" points="1214.22 688.36 1176.28 667.44 1176.28 623.79 1214.22 644.7 1214.22 688.36"/>
  </g>
  <g>
    <polygon class="st2" points="1328.06 667.18 1366 646.26 1366 602.6 1328.06 623.52 1328.06 667.18"/>
    <polygon class="st2" points="1290.11 580.85 1328.06 559.93 1328.06 516.27 1290.11 537.19 1290.11 580.85"/>
    <polygon class="st1" points="1290.11 624.25 1252.17 603.33 1252.17 559.68 1290.11 580.6 1290.11 624.25"/>
    <polygon class="st0" points="1328.06 688.36 1290.11 667.44 1290.11 623.79 1328.06 644.7 1328.06 688.36"/>
  </g>
  <g>
    <polygon class="st2" points="75.89 839.27 113.83 818.35 113.83 774.69 75.89 795.61 75.89 839.27"/>
    <polygon class="st2" points="37.94 752.94 75.89 732.02 75.89 688.36 37.94 709.28 37.94 752.94"/>
    <polygon class="st1" points="37.94 796.34 0 775.43 0 731.77 37.94 752.69 37.94 796.34"/>
    <polygon class="st0" points="75.89 860.45 37.94 839.53 37.94 795.88 75.89 816.79 75.89 860.45"/>
  </g>
  <g>
    <polygon class="st2" points="189.72 839.27 227.67 818.35 227.67 774.69 189.72 795.61 189.72 839.27"/>
    <polygon class="st2" points="151.78 752.94 189.72 732.02 189.72 688.36 151.78 709.28 151.78 752.94"/>
    <polygon class="st1" points="151.78 796.34 113.83 775.43 113.83 731.77 151.78 752.69 151.78 796.34"/>
    <polygon class="st0" points="189.72 860.45 151.78 839.53 151.78 795.88 189.72 816.79 189.72 860.45"/>
  </g>
  <g>
    <polygon class="st2" points="303.56 839.27 341.5 818.35 341.5 774.69 303.56 795.61 303.56 839.27"/>
    <polygon class="st2" points="265.61 752.94 303.56 732.02 303.56 688.36 265.61 709.28 265.61 752.94"/>
    <polygon class="st1" points="265.61 796.34 227.67 775.43 227.67 731.77 265.61 752.69 265.61 796.34"/>
    <polygon class="st0" points="303.56 860.45 265.61 839.53 265.61 795.88 303.56 816.79 303.56 860.45"/>
  </g>
  <g>
    <polygon class="st2" points="417.39 839.27 455.33 818.35 455.33 774.69 417.39 795.61 417.39 839.27"/>
    <polygon class="st2" points="379.44 752.94 417.39 732.02 417.39 688.36 379.44 709.28 379.44 752.94"/>
    <polygon class="st1" points="379.44 796.34 341.5 775.43 341.5 731.77 379.44 752.69 379.44 796.34"/>
    <polygon class="st0" points="417.39 860.45 379.44 839.53 379.44 795.88 417.39 816.79 417.39 860.45"/>
  </g>
  <g>
    <polygon class="st2" points="531.22 839.27 569.17 818.35 569.17 774.69 531.22 795.61 531.22 839.27"/>
    <polygon class="st2" points="493.28 752.94 531.22 732.02 531.22 688.36 493.28 709.28 493.28 752.94"/>
    <polygon class="st1" points="493.28 796.34 455.33 775.43 455.33 731.77 493.28 752.69 493.28 796.34"/>
    <polygon class="st0" points="531.22 860.45 493.28 839.53 493.28 795.88 531.22 816.79 531.22 860.45"/>
  </g>
  <g>
    <polygon class="st2" points="645.06 839.27 683 818.35 683 774.69 645.06 795.61 645.06 839.27"/>
    <polygon class="st2" points="607.11 752.94 645.06 732.02 645.06 688.36 607.11 709.28 607.11 752.94"/>
    <polygon class="st1" points="607.11 796.34 569.17 775.43 569.17 731.77 607.11 752.69 607.11 796.34"/>
    <polygon class="st0" points="645.06 860.45 607.11 839.53 607.11 795.88 645.06 816.79 645.06 860.45"/>
  </g>
  <g>
    <polygon class="st2" points="758.89 839.27 796.83 818.35 796.83 774.69 758.89 795.61 758.89 839.27"/>
    <polygon class="st2" points="720.94 752.94 758.89 732.02 758.89 688.36 720.94 709.28 720.94 752.94"/>
    <polygon class="st1" points="720.94 796.34 683 775.43 683 731.77 720.94 752.69 720.94 796.34"/>
    <polygon class="st0" points="758.89 860.45 720.94 839.53 720.94 795.88 758.89 816.79 758.89 860.45"/>
  </g>
  <g>
    <polygon class="st2" points="872.72 839.27 910.67 818.35 910.67 774.69 872.72 795.61 872.72 839.27"/>
    <polygon class="st2" points="834.78 752.94 872.72 732.02 872.72 688.36 834.78 709.28 834.78 752.94"/>
    <polygon class="st1" points="834.78 796.34 796.83 775.43 796.83 731.77 834.78 752.69 834.78 796.34"/>
    <polygon class="st0" points="872.72 860.45 834.78 839.53 834.78 795.88 872.72 816.79 872.72 860.45"/>
  </g>
  <g>
    <polygon class="st2" points="986.56 839.27 1024.5 818.35 1024.5 774.69 986.56 795.61 986.56 839.27"/>
    <polygon class="st2" points="948.61 752.94 986.56 732.02 986.56 688.36 948.61 709.28 948.61 752.94"/>
    <polygon class="st1" points="948.61 796.34 910.67 775.43 910.67 731.77 948.61 752.69 948.61 796.34"/>
    <polygon class="st0" points="986.56 860.45 948.61 839.53 948.61 795.88 986.56 816.79 986.56 860.45"/>
  </g>
  <g>
    <polygon class="st2" points="1100.39 839.27 1138.33 818.35 1138.33 774.69 1100.39 795.61 1100.39 839.27"/>
    <polygon class="st2" points="1062.44 752.94 1100.39 732.02 1100.39 688.36 1062.44 709.28 1062.44 752.94"/>
    <polygon class="st1" points="1062.44 796.34 1024.5 775.43 1024.5 731.77 1062.44 752.69 1062.44 796.34"/>
    <polygon class="st0" points="1100.39 860.45 1062.44 839.53 1062.44 795.88 1100.39 816.79 1100.39 860.45"/>
  </g>
  <g>
    <polygon class="st2" points="1214.22 839.27 1252.17 818.35 1252.17 774.69 1214.22 795.61 1214.22 839.27"/>
    <polygon class="st2" points="1176.28 752.94 1214.22 732.02 1214.22 688.36 1176.28 709.28 1176.28 752.94"/>
    <polygon class="st1" points="1176.28 796.34 1138.33 775.43 1138.33 731.77 1176.28 752.69 1176.28 796.34"/>
    <polygon class="st0" points="1214.22 860.45 1176.28 839.53 1176.28 795.88 1214.22 816.79 1214.22 860.45"/>
  </g>
  <g>
    <polygon class="st2" points="1328.06 839.27 1366 818.35 1366 774.69 1328.06 795.61 1328.06 839.27"/>
    <polygon class="st2" points="1290.11 752.94 1328.06 732.02 1328.06 688.36 1290.11 709.28 1290.11 752.94"/>
    <polygon class="st1" points="1290.11 796.34 1252.17 775.43 1252.17 731.77 1290.11 752.69 1290.11 796.34"/>
    <polygon class="st0" points="1328.06 860.45 1290.11 839.53 1290.11 795.88 1328.06 816.79 1328.06 860.45"/>
  </g>
</svg>