<?xml version="1.0" encoding="UTF-8"?>
<svg id="Calque_1" xmlns="http://www.w3.org/2000/svg" version="1.1" viewBox="0 0 1366 860.45">
  <!-- Generator: Adobe Illustrator 30.1.0, SVG Export Plug-In . SVG Version: 2.1.1 Build 136)  -->
  <defs>
    <style>
      .st0 {
        stroke: #9dacfb;
      }

      .st0, .st1, .st2 {
        fill: none;
        stroke-miterlimit: 10;
        stroke-width: 2px;
      }

      .st1 {
        stroke: #536ae4;
      }

      .st2 {
        stroke: #d0dce7;
      }
    </style>
  </defs>
  <g>
    <polygon class="st0" points="38.01 108.34 0 87.39 0 43.65 38.01 64.61 38.01 108.34"/>
    <polygon class="st2" points="76.02 172.24 38.01 151.29 38.01 107.55 76.02 128.51 76.02 172.24"/>
    <polygon class="st1" points="38.01 64.86 76.02 43.91 76.02 .17 38.01 21.13 38.01 64.86"/>
    <polygon class="st1" points="76.02 151.34 114.04 130.39 114.04 86.65 76.02 107.61 76.02 151.34"/>
  </g>
  <g>
    <polygon class="st0" points="152.05 108.34 114.04 87.39 114.04 43.65 152.05 64.61 152.05 108.34"/>
    <polygon class="st2" points="190.06 172.24 152.05 151.29 152.05 107.55 190.06 128.51 190.06 172.24"/>
    <polygon class="st1" points="152.05 64.86 190.06 43.91 190.06 .17 152.05 21.13 152.05 64.86"/>
    <polygon class="st1" points="190.06 151.34 228.07 130.39 228.07 86.65 190.06 107.61 190.06 151.34"/>
  </g>
  <g>
    <polygon class="st0" points="266.08 108.34 228.07 87.39 228.07 43.65 266.08 64.61 266.08 108.34"/>
    <polygon class="st2" points="304.1 172.24 266.08 151.29 266.08 107.55 304.1 128.51 304.1 172.24"/>
    <polygon class="st1" points="266.08 64.86 304.1 43.91 304.1 .17 266.08 21.13 266.08 64.86"/>
    <polygon class="st1" points="304.1 151.34 342.11 130.39 342.11 86.65 304.1 107.61 304.1 151.34"/>
  </g>
  <g>
    <polygon class="st0" points="380.12 108.34 342.11 87.39 342.11 43.65 380.12 64.61 380.12 108.34"/>
    <polygon class="st2" points="418.13 172.24 380.12 151.29 380.12 107.55 418.13 128.51 418.13 172.24"/>
    <polygon class="st1" points="380.12 64.86 418.13 43.91 418.13 .17 380.12 21.13 380.12 64.86"/>
    <polygon class="st1" points="418.13 151.34 456.15 130.39 456.15 86.65 418.13 107.61 418.13 151.34"/>
  </g>
  <g>
    <polygon class="st0" points="494.16 108.34 456.15 87.39 456.15 43.65 494.16 64.61 494.16 108.34"/>
    <polygon class="st2" points="532.17 172.24 494.16 151.29 494.16 107.55 532.17 128.51 532.17 172.24"/>
    <polygon class="st1" points="494.16 64.86 532.17 43.91 532.17 .17 494.16 21.13 494.16 64.86"/>
    <polygon class="st1" points="532.17 151.34 570.18 130.39 570.18 86.65 532.17 107.61 532.17 151.34"/>
  </g>
  <g>
    <polygon class="st0" points="608.19 108.34 570.18 87.39 570.18 43.65 608.19 64.61 608.19 108.34"/>
    <polygon class="st2" points="646.21 172.24 608.19 151.29 608.19 107.55 646.21 128.51 646.21 172.24"/>
    <polygon class="st1" points="608.19 64.86 646.21 43.91 646.21 .17 608.19 21.13 608.19 64.86"/>
    <polygon class="st1" points="646.21 151.34 684.22 130.39 684.22 86.65 646.21 107.61 646.21 151.34"/>
  </g>
  <g>
    <polygon class="st0" points="722.23 108.34 684.22 87.39 684.22 43.65 722.23 64.61 722.23 108.34"/>
    <polygon class="st2" points="760.24 172.24 722.23 151.29 722.23 107.55 760.24 128.51 760.24 172.24"/>
    <polygon class="st1" points="722.23 64.86 760.24 43.91 760.24 .17 722.23 21.13 722.23 64.86"/>
    <polygon class="st1" points="760.24 151.34 798.25 130.39 798.25 86.65 760.24 107.61 760.24 151.34"/>
  </g>
  <g>
    <polygon class="st0" points="836.27 108.34 798.25 87.39 798.25 43.65 836.27 64.61 836.27 108.34"/>
    <polygon class="st2" points="874.28 172.24 836.27 151.29 836.27 107.55 874.28 128.51 874.28 172.24"/>
    <polygon class="st1" points="836.27 64.86 874.28 43.91 874.28 .17 836.27 21.13 836.27 64.86"/>
    <polygon class="st1" points="874.28 151.34 912.29 130.39 912.29 86.65 874.28 107.61 874.28 151.34"/>
  </g>
  <g>
    <polygon class="st0" points="950.3 108.34 912.29 87.39 912.29 43.65 950.3 64.61 950.3 108.34"/>
    <polygon class="st2" points="988.31 172.24 950.3 151.29 950.3 107.55 988.31 128.51 988.31 172.24"/>
    <polygon class="st1" points="950.3 64.86 988.31 43.91 988.31 .17 950.3 21.13 950.3 64.86"/>
    <polygon class="st1" points="988.31 151.34 1026.33 130.39 1026.33 86.65 988.31 107.61 988.31 151.34"/>
  </g>
  <g>
    <polygon class="st0" points="1064.34 108.34 1026.33 87.39 1026.33 43.65 1064.34 64.61 1064.34 108.34"/>
    <polygon class="st2" points="1102.35 172.24 1064.34 151.29 1064.34 107.55 1102.35 128.51 1102.35 172.24"/>
    <polygon class="st1" points="1064.34 64.86 1102.35 43.91 1102.35 .17 1064.34 21.13 1064.34 64.86"/>
    <polygon class="st1" points="1102.35 151.34 1140.36 130.39 1140.36 86.65 1102.35 107.61 1102.35 151.34"/>
  </g>
  <g>
    <polygon class="st0" points="1178.38 108.34 1140.36 87.39 1140.36 43.65 1178.38 64.61 1178.38 108.34"/>
    <polygon class="st2" points="1216.39 172.24 1178.38 151.29 1178.38 107.55 1216.39 128.51 1216.39 172.24"/>
    <polygon class="st1" points="1178.38 64.86 1216.39 43.91 1216.39 .17 1178.38 21.13 1178.38 64.86"/>
    <polygon class="st1" points="1216.39 151.34 1254.4 130.39 1254.4 86.65 1216.39 107.61 1216.39 151.34"/>
  </g>
  <g>
    <polygon class="st0" points="1292.41 108.34 1254.4 87.39 1254.4 43.65 1292.41 64.61 1292.41 108.34"/>
    <polygon class="st2" points="1330.42 172.24 1292.41 151.29 1292.41 107.55 1330.42 128.51 1330.42 172.24"/>
    <polygon class="st1" points="1292.41 64.86 1330.42 43.91 1330.42 .17 1292.41 21.13 1292.41 64.86"/>
    <polygon class="st1" points="1330.42 151.34 1368.44 130.39 1368.44 86.65 1330.42 107.61 1330.42 151.34"/>
  </g>
  <g>
    <polygon class="st0" points="38.01 280.42 0 259.46 0 215.73 38.01 236.68 38.01 280.42"/>
    <polygon class="st2" points="76.02 344.32 38.01 323.36 38.01 279.62 76.02 300.58 76.02 344.32"/>
    <polygon class="st1" points="38.01 236.93 76.02 215.98 76.02 172.24 38.01 193.2 38.01 236.93"/>
    <polygon class="st1" points="76.02 323.42 114.04 302.46 114.04 258.73 76.02 279.68 76.02 323.42"/>
  </g>
  <g>
    <polygon class="st0" points="152.05 280.42 114.04 259.46 114.04 215.73 152.05 236.68 152.05 280.42"/>
    <polygon class="st2" points="190.06 344.32 152.05 323.36 152.05 279.62 190.06 300.58 190.06 344.32"/>
    <polygon class="st1" points="152.05 236.93 190.06 215.98 190.06 172.24 152.05 193.2 152.05 236.93"/>
    <polygon class="st1" points="190.06 323.42 228.07 302.46 228.07 258.73 190.06 279.68 190.06 323.42"/>
  </g>
  <g>
    <polygon class="st0" points="266.08 280.42 228.07 259.46 228.07 215.73 266.08 236.68 266.08 280.42"/>
    <polygon class="st2" points="304.1 344.32 266.08 323.36 266.08 279.62 304.1 300.58 304.1 344.32"/>
    <polygon class="st1" points="266.08 236.93 304.1 215.98 304.1 172.24 266.08 193.2 266.08 236.93"/>
    <polygon class="st1" points="304.1 323.42 342.11 302.46 342.11 258.73 304.1 279.68 304.1 323.42"/>
  </g>
  <g>
    <polygon class="st0" points="380.12 280.42 342.11 259.46 342.11 215.73 380.12 236.68 380.12 280.42"/>
    <polygon class="st2" points="418.13 344.32 380.12 323.36 380.12 279.62 418.13 300.58 418.13 344.32"/>
    <polygon class="st1" points="380.12 236.93 418.13 215.98 418.13 172.24 380.12 193.2 380.12 236.93"/>
    <polygon class="st1" points="418.13 323.42 456.15 302.46 456.15 258.73 418.13 279.68 418.13 323.42"/>
  </g>
  <g>
    <polygon class="st0" points="494.16 280.42 456.15 259.46 456.15 215.73 494.16 236.68 494.16 280.42"/>
    <polygon class="st2" points="532.17 344.32 494.16 323.36 494.16 279.62 532.17 300.58 532.17 344.32"/>
    <polygon class="st1" points="494.16 236.93 532.17 215.98 532.17 172.24 494.16 193.2 494.16 236.93"/>
    <polygon class="st1" points="532.17 323.42 570.18 302.46 570.18 258.73 532.17 279.68 532.17 323.42"/>
  </g>
  <g>
    <polygon class="st0" points="608.19 280.42 570.18 259.46 570.18 215.73 608.19 236.68 608.19 280.42"/>
    <polygon class="st2" points="646.21 344.32 608.19 323.36 608.19 279.62 646.21 300.58 646.21 344.32"/>
    <polygon class="st1" points="608.19 236.93 646.21 215.98 646.21 172.24 608.19 193.2 608.19 236.93"/>
    <polygon class="st1" points="646.21 323.42 684.22 302.46 684.22 258.73 646.21 279.68 646.21 323.42"/>
  </g>
  <g>
    <polygon class="st0" points="722.23 280.42 684.22 259.46 684.22 215.73 722.23 236.68 722.23 280.42"/>
    <polygon class="st2" points="760.24 344.32 722.23 323.36 722.23 279.62 760.24 300.58 760.24 344.32"/>
    <polygon class="st1" points="722.23 236.93 760.24 215.98 760.24 172.24 722.23 193.2 722.23 236.93"/>
    <polygon class="st1" points="760.24 323.42 798.25 302.46 798.25 258.73 760.24 279.68 760.24 323.42"/>
  </g>
  <g>
    <polygon class="st0" points="836.27 280.42 798.25 259.46 798.25 215.73 836.27 236.68 836.27 280.42"/>
    <polygon class="st2" points="874.28 344.32 836.27 323.36 836.27 279.62 874.28 300.58 874.28 344.32"/>
    <polygon class="st1" points="836.27 236.93 874.28 215.98 874.28 172.24 836.27 193.2 836.27 236.93"/>
    <polygon class="st1" points="874.28 323.42 912.29 302.46 912.29 258.73 874.28 279.68 874.28 323.42"/>
  </g>
  <g>
    <polygon class="st0" points="950.3 280.42 912.29 259.46 912.29 215.73 950.3 236.68 950.3 280.42"/>
    <polygon class="st2" points="988.31 344.32 950.3 323.36 950.3 279.62 988.31 300.58 988.31 344.32"/>
    <polygon class="st1" points="950.3 236.93 988.31 215.98 988.31 172.24 950.3 193.2 950.3 236.93"/>
    <polygon class="st1" points="988.31 323.42 1026.33 302.46 1026.33 258.73 988.31 279.68 988.31 323.42"/>
  </g>
  <g>
    <polygon class="st0" points="1064.34 280.42 1026.33 259.46 1026.33 215.73 1064.34 236.68 1064.34 280.42"/>
    <polygon class="st2" points="1102.35 344.32 1064.34 323.36 1064.34 279.62 1102.35 300.58 1102.35 344.32"/>
    <polygon class="st1" points="1064.34 236.93 1102.35 215.98 1102.35 172.24 1064.34 193.2 1064.34 236.93"/>
    <polygon class="st1" points="1102.35 323.42 1140.36 302.46 1140.36 258.73 1102.35 279.68 1102.35 323.42"/>
  </g>
  <g>
    <polygon class="st0" points="1178.38 280.42 1140.36 259.46 1140.36 215.73 1178.38 236.68 1178.38 280.42"/>
    <polygon class="st2" points="1216.39 344.32 1178.38 323.36 1178.38 279.62 1216.39 300.58 1216.39 344.32"/>
    <polygon class="st1" points="1178.38 236.93 1216.39 215.98 1216.39 172.24 1178.38 193.2 1178.38 236.93"/>
    <polygon class="st1" points="1216.39 323.42 1254.4 302.46 1254.4 258.73 1216.39 279.68 1216.39 323.42"/>
  </g>
  <g>
    <polygon class="st0" points="1292.41 280.42 1254.4 259.46 1254.4 215.73 1292.41 236.68 1292.41 280.42"/>
    <polygon class="st2" points="1330.42 344.32 1292.41 323.36 1292.41 279.62 1330.42 300.58 1330.42 344.32"/>
    <polygon class="st1" points="1292.41 236.93 1330.42 215.98 1330.42 172.24 1292.41 193.2 1292.41 236.93"/>
    <polygon class="st1" points="1330.42 323.42 1368.44 302.46 1368.44 258.73 1330.42 279.68 1330.42 323.42"/>
  </g>
  <g>
    <polygon class="st0" points="38.01 452.36 0 431.41 0 387.67 38.01 408.63 38.01 452.36"/>
    <polygon class="st2" points="76.02 516.26 38.01 495.31 38.01 451.57 76.02 472.53 76.02 516.26"/>
    <polygon class="st1" points="38.01 408.88 76.02 387.93 76.02 344.19 38.01 365.15 38.01 408.88"/>
    <polygon class="st1" points="76.02 495.36 114.04 474.41 114.04 430.67 76.02 451.63 76.02 495.36"/>
  </g>
  <g>
    <polygon class="st0" points="152.05 452.36 114.04 431.41 114.04 387.67 152.05 408.63 152.05 452.36"/>
    <polygon class="st2" points="190.06 516.26 152.05 495.31 152.05 451.57 190.06 472.53 190.06 516.26"/>
    <polygon class="st1" points="152.05 408.88 190.06 387.93 190.06 344.19 152.05 365.15 152.05 408.88"/>
    <polygon class="st1" points="190.06 495.36 228.07 474.41 228.07 430.67 190.06 451.63 190.06 495.36"/>
  </g>
  <g>
    <polygon class="st0" points="266.08 452.36 228.07 431.41 228.07 387.67 266.08 408.63 266.08 452.36"/>
    <polygon class="st2" points="304.1 516.26 266.08 495.31 266.08 451.57 304.1 472.53 304.1 516.26"/>
    <polygon class="st1" points="266.08 408.88 304.1 387.93 304.1 344.19 266.08 365.15 266.08 408.88"/>
    <polygon class="st1" points="304.1 495.36 342.11 474.41 342.11 430.67 304.1 451.63 304.1 495.36"/>
  </g>
  <g>
    <polygon class="st0" points="380.12 452.36 342.11 431.41 342.11 387.67 380.12 408.63 380.12 452.36"/>
    <polygon class="st2" points="418.13 516.26 380.12 495.31 380.12 451.57 418.13 472.53 418.13 516.26"/>
    <polygon class="st1" points="380.12 408.88 418.13 387.93 418.13 344.19 380.12 365.15 380.12 408.88"/>
    <polygon class="st1" points="418.13 495.36 456.15 474.41 456.15 430.67 418.13 451.63 418.13 495.36"/>
  </g>
  <g>
    <polygon class="st0" points="494.16 452.36 456.15 431.41 456.15 387.67 494.16 408.63 494.16 452.36"/>
    <polygon class="st2" points="532.17 516.26 494.16 495.31 494.16 451.57 532.17 472.53 532.17 516.26"/>
    <polygon class="st1" points="494.16 408.88 532.17 387.93 532.17 344.19 494.16 365.15 494.16 408.88"/>
    <polygon class="st1" points="532.17 495.36 570.18 474.41 570.18 430.67 532.17 451.63 532.17 495.36"/>
  </g>
  <g>
    <polygon class="st0" points="608.19 452.36 570.18 431.41 570.18 387.67 608.19 408.63 608.19 452.36"/>
    <polygon class="st2" points="646.21 516.26 608.19 495.31 608.19 451.57 646.21 472.53 646.21 516.26"/>
    <polygon class="st1" points="608.19 408.88 646.21 387.93 646.21 344.19 608.19 365.15 608.19 408.88"/>
    <polygon class="st1" points="646.21 495.36 684.22 474.41 684.22 430.67 646.21 451.63 646.21 495.36"/>
  </g>
  <g>
    <polygon class="st0" points="722.23 452.36 684.22 431.41 684.22 387.67 722.23 408.63 722.23 452.36"/>
    <polygon class="st2" points="760.24 516.26 722.23 495.31 722.23 451.57 760.24 472.53 760.24 516.26"/>
    <polygon class="st1" points="722.23 408.88 760.24 387.93 760.24 344.19 722.23 365.15 722.23 408.88"/>
    <polygon class="st1" points="760.24 495.36 798.25 474.41 798.25 430.67 760.24 451.63 760.24 495.36"/>
  </g>
  <g>
    <polygon class="st0" points="836.27 452.36 798.25 431.41 798.25 387.67 836.27 408.63 836.27 452.36"/>
    <polygon class="st2" points="874.28 516.26 836.27 495.31 836.27 451.57 874.28 472.53 874.28 516.26"/>
    <polygon class="st1" points="836.27 408.88 874.28 387.93 874.28 344.19 836.27 365.15 836.27 408.88"/>
    <polygon class="st1" points="874.28 495.36 912.29 474.41 912.29 430.67 874.28 451.63 874.28 495.36"/>
  </g>
  <g>
    <polygon class="st0" points="950.3 452.36 912.29 431.41 912.29 387.67 950.3 408.63 950.3 452.36"/>
    <polygon class="st2" points="988.31 516.26 950.3 495.31 950.3 451.57 988.31 472.53 988.31 516.26"/>
    <polygon class="st1" points="950.3 408.88 988.31 387.93 988.31 344.19 950.3 365.15 950.3 408.88"/>
    <polygon class="st1" points="988.31 495.36 1026.33 474.41 1026.33 430.67 988.31 451.63 988.31 495.36"/>
  </g>
  <g>
    <polygon class="st0" points="1064.34 452.36 1026.33 431.41 1026.33 387.67 1064.34 408.63 1064.34 452.36"/>
    <polygon class="st2" points="1102.35 516.26 1064.34 495.31 1064.34 451.57 1102.35 472.53 1102.35 516.26"/>
    <polygon class="st1" points="1064.34 408.88 1102.35 387.93 1102.35 344.19 1064.34 365.15 1064.34 408.88"/>
    <polygon class="st1" points="1102.35 495.36 1140.36 474.41 1140.36 430.67 1102.35 451.63 1102.35 495.36"/>
  </g>
  <g>
    <polygon class="st0" points="1178.38 452.36 1140.36 431.41 1140.36 387.67 1178.38 408.63 1178.38 452.36"/>
    <polygon class="st2" points="1216.39 516.26 1178.38 495.31 1178.38 451.57 1216.39 472.53 1216.39 516.26"/>
    <polygon class="st1" points="1178.38 408.88 1216.39 387.93 1216.39 344.19 1178.38 365.15 1178.38 408.88"/>
    <polygon class="st1" points="1216.39 495.36 1254.4 474.41 1254.4 430.67 1216.39 451.63 1216.39 495.36"/>
  </g>
  <g>
    <polygon class="st0" points="1292.41 452.36 1254.4 431.41 1254.4 387.67 1292.41 408.63 1292.41 452.36"/>
    <polygon class="st2" points="1330.42 516.26 1292.41 495.31 1292.41 451.57 1330.42 472.53 1330.42 516.26"/>
    <polygon class="st1" points="1292.41 408.88 1330.42 387.93 1330.42 344.19 1292.41 365.15 1292.41 408.88"/>
    <polygon class="st1" points="1330.42 495.36 1368.44 474.41 1368.44 430.67 1330.42 451.63 1330.42 495.36"/>
  </g>
  <g>
    <polygon class="st0" points="38.01 624.44 0 603.48 0 559.75 38.01 580.7 38.01 624.44"/>
    <polygon class="st2" points="76.02 688.34 38.01 667.38 38.01 623.64 76.02 644.6 76.02 688.34"/>
    <polygon class="st1" points="38.01 580.95 76.02 560 76.02 516.26 38.01 537.22 38.01 580.95"/>
    <polygon class="st1" points="76.02 667.44 114.04 646.48 114.04 602.75 76.02 623.7 76.02 667.44"/>
  </g>
  <g>
    <polygon class="st0" points="152.05 624.44 114.04 603.48 114.04 559.75 152.05 580.7 152.05 624.44"/>
    <polygon class="st2" points="190.06 688.34 152.05 667.38 152.05 623.64 190.06 644.6 190.06 688.34"/>
    <polygon class="st1" points="152.05 580.95 190.06 560 190.06 516.26 152.05 537.22 152.05 580.95"/>
    <polygon class="st1" points="190.06 667.44 228.07 646.48 228.07 602.75 190.06 623.7 190.06 667.44"/>
  </g>
  <g>
    <polygon class="st0" points="266.08 624.44 228.07 603.48 228.07 559.75 266.08 580.7 266.08 624.44"/>
    <polygon class="st2" points="304.1 688.34 266.08 667.38 266.08 623.64 304.1 644.6 304.1 688.34"/>
    <polygon class="st1" points="266.08 580.95 304.1 560 304.1 516.26 266.08 537.22 266.08 580.95"/>
    <polygon class="st1" points="304.1 667.44 342.11 646.48 342.11 602.75 304.1 623.7 304.1 667.44"/>
  </g>
  <g>
    <polygon class="st0" points="380.12 624.44 342.11 603.48 342.11 559.75 380.12 580.7 380.12 624.44"/>
    <polygon class="st2" points="418.13 688.34 380.12 667.38 380.12 623.64 418.13 644.6 418.13 688.34"/>
    <polygon class="st1" points="380.12 580.95 418.13 560 418.13 516.26 380.12 537.22 380.12 580.95"/>
    <polygon class="st1" points="418.13 667.44 456.15 646.48 456.15 602.75 418.13 623.7 418.13 667.44"/>
  </g>
  <g>
    <polygon class="st0" points="494.16 624.44 456.15 603.48 456.15 559.75 494.16 580.7 494.16 624.44"/>
    <polygon class="st2" points="532.17 688.34 494.16 667.38 494.16 623.64 532.17 644.6 532.17 688.34"/>
    <polygon class="st1" points="494.16 580.95 532.17 560 532.17 516.26 494.16 537.22 494.16 580.95"/>
    <polygon class="st1" points="532.17 667.44 570.18 646.48 570.18 602.75 532.17 623.7 532.17 667.44"/>
  </g>
  <g>
    <polygon class="st0" points="608.19 624.44 570.18 603.48 570.18 559.75 608.19 580.7 608.19 624.44"/>
    <polygon class="st2" points="646.21 688.34 608.19 667.38 608.19 623.64 646.21 644.6 646.21 688.34"/>
    <polygon class="st1" points="608.19 580.95 646.21 560 646.21 516.26 608.19 537.22 608.19 580.95"/>
    <polygon class="st1" points="646.21 667.44 684.22 646.48 684.22 602.75 646.21 623.7 646.21 667.44"/>
  </g>
  <g>
    <polygon class="st0" points="722.23 624.44 684.22 603.48 684.22 559.75 722.23 580.7 722.23 624.44"/>
    <polygon class="st2" points="760.24 688.34 722.23 667.38 722.23 623.64 760.24 644.6 760.24 688.34"/>
    <polygon class="st1" points="722.23 580.95 760.24 560 760.24 516.26 722.23 537.22 722.23 580.95"/>
    <polygon class="st1" points="760.24 667.44 798.25 646.48 798.25 602.75 760.24 623.7 760.24 667.44"/>
  </g>
  <g>
    <polygon class="st0" points="836.27 624.44 798.25 603.48 798.25 559.75 836.27 580.7 836.27 624.44"/>
    <polygon class="st2" points="874.28 688.34 836.27 667.38 836.27 623.64 874.28 644.6 874.28 688.34"/>
    <polygon class="st1" points="836.27 580.95 874.28 560 874.28 516.26 836.27 537.22 836.27 580.95"/>
    <polygon class="st1" points="874.28 667.44 912.29 646.48 912.29 602.75 874.28 623.7 874.28 667.44"/>
  </g>
  <g>
    <polygon class="st0" points="950.3 624.44 912.29 603.48 912.29 559.75 950.3 580.7 950.3 624.44"/>
    <polygon class="st2" points="988.31 688.34 950.3 667.38 950.3 623.64 988.31 644.6 988.31 688.34"/>
    <polygon class="st1" points="950.3 580.95 988.31 560 988.31 516.26 950.3 537.22 950.3 580.95"/>
    <polygon class="st1" points="988.31 667.44 1026.33 646.48 1026.33 602.75 988.31 623.7 988.31 667.44"/>
  </g>
  <g>
    <polygon class="st0" points="1064.34 624.44 1026.33 603.48 1026.33 559.75 1064.34 580.7 1064.34 624.44"/>
    <polygon class="st2" points="1102.35 688.34 1064.34 667.38 1064.34 623.64 1102.35 644.6 1102.35 688.34"/>
    <polygon class="st1" points="1064.34 580.95 1102.35 560 1102.35 516.26 1064.34 537.22 1064.34 580.95"/>
    <polygon class="st1" points="1102.35 667.44 1140.36 646.48 1140.36 602.75 1102.35 623.7 1102.35 667.44"/>
  </g>
  <g>
    <polygon class="st0" points="1178.38 624.44 1140.36 603.48 1140.36 559.75 1178.38 580.7 1178.38 624.44"/>
    <polygon class="st2" points="1216.39 688.34 1178.38 667.38 1178.38 623.64 1216.39 644.6 1216.39 688.34"/>
    <polygon class="st1" points="1178.38 580.95 1216.39 560 1216.39 516.26 1178.38 537.22 1178.38 580.95"/>
    <polygon class="st1" points="1216.39 667.44 1254.4 646.48 1254.4 602.75 1216.39 623.7 1216.39 667.44"/>
  </g>
  <g>
    <polygon class="st0" points="1292.41 624.44 1254.4 603.48 1254.4 559.75 1292.41 580.7 1292.41 624.44"/>
    <polygon class="st2" points="1330.42 688.34 1292.41 667.38 1292.41 623.64 1330.42 644.6 1330.42 688.34"/>
    <polygon class="st1" points="1292.41 580.95 1330.42 560 1330.42 516.26 1292.41 537.22 1292.41 580.95"/>
    <polygon class="st1" points="1330.42 667.44 1368.44 646.48 1368.44 602.75 1330.42 623.7 1330.42 667.44"/>
  </g>
  <g>
    <polygon class="st0" points="38.01 796.51 0 775.55 0 731.82 38.01 752.77 38.01 796.51"/>
    <polygon class="st2" points="76.02 860.41 38.01 839.45 38.01 795.72 76.02 816.67 76.02 860.41"/>
    <polygon class="st1" points="38.01 753.03 76.02 732.07 76.02 688.34 38.01 709.29 38.01 753.03"/>
    <polygon class="st1" points="76.02 839.51 114.04 818.55 114.04 774.82 76.02 795.77 76.02 839.51"/>
  </g>
  <g>
    <polygon class="st0" points="152.05 796.51 114.04 775.55 114.04 731.82 152.05 752.77 152.05 796.51"/>
    <polygon class="st2" points="190.06 860.41 152.05 839.45 152.05 795.72 190.06 816.67 190.06 860.41"/>
    <polygon class="st1" points="152.05 753.03 190.06 732.07 190.06 688.34 152.05 709.29 152.05 753.03"/>
    <polygon class="st1" points="190.06 839.51 228.07 818.55 228.07 774.82 190.06 795.77 190.06 839.51"/>
  </g>
  <g>
    <polygon class="st0" points="266.08 796.51 228.07 775.55 228.07 731.82 266.08 752.77 266.08 796.51"/>
    <polygon class="st2" points="304.1 860.41 266.08 839.45 266.08 795.72 304.1 816.67 304.1 860.41"/>
    <polygon class="st1" points="266.08 753.03 304.1 732.07 304.1 688.34 266.08 709.29 266.08 753.03"/>
    <polygon class="st1" points="304.1 839.51 342.11 818.55 342.11 774.82 304.1 795.77 304.1 839.51"/>
  </g>
  <g>
    <polygon class="st0" points="380.12 796.51 342.11 775.55 342.11 731.82 380.12 752.77 380.12 796.51"/>
    <polygon class="st2" points="418.13 860.41 380.12 839.45 380.12 795.72 418.13 816.67 418.13 860.41"/>
    <polygon class="st1" points="380.12 753.03 418.13 732.07 418.13 688.34 380.12 709.29 380.12 753.03"/>
    <polygon class="st1" points="418.13 839.51 456.15 818.55 456.15 774.82 418.13 795.77 418.13 839.51"/>
  </g>
  <g>
    <polygon class="st0" points="494.16 796.51 456.15 775.55 456.15 731.82 494.16 752.77 494.16 796.51"/>
    <polygon class="st2" points="532.17 860.41 494.16 839.45 494.16 795.72 532.17 816.67 532.17 860.41"/>
    <polygon class="st1" points="494.16 753.03 532.17 732.07 532.17 688.34 494.16 709.29 494.16 753.03"/>
    <polygon class="st1" points="532.17 839.51 570.18 818.55 570.18 774.82 532.17 795.77 532.17 839.51"/>
  </g>
  <g>
    <polygon class="st0" points="608.19 796.51 570.18 775.55 570.18 731.82 608.19 752.77 608.19 796.51"/>
    <polygon class="st2" points="646.21 860.41 608.19 839.45 608.19 795.72 646.21 816.67 646.21 860.41"/>
    <polygon class="st1" points="608.19 753.03 646.21 732.07 646.21 688.34 608.19 709.29 608.19 753.03"/>
    <polygon class="st1" points="646.21 839.51 684.22 818.55 684.22 774.82 646.21 795.77 646.21 839.51"/>
  </g>
  <g>
    <polygon class="st0" points="722.23 796.51 684.22 775.55 684.22 731.82 722.23 752.77 722.23 796.51"/>
    <polygon class="st2" points="760.24 860.41 722.23 839.45 722.23 795.72 760.24 816.67 760.24 860.41"/>
    <polygon class="st1" points="722.23 753.03 760.24 732.07 760.24 688.34 722.23 709.29 722.23 753.03"/>
    <polygon class="st1" points="760.24 839.51 798.25 818.55 798.25 774.82 760.24 795.77 760.24 839.51"/>
  </g>
  <g>
    <polygon class="st0" points="836.27 796.51 798.25 775.55 798.25 731.82 836.27 752.77 836.27 796.51"/>
    <polygon class="st2" points="874.28 860.41 836.27 839.45 836.27 795.72 874.28 816.67 874.28 860.41"/>
    <polygon class="st1" points="836.27 753.03 874.28 732.07 874.28 688.34 836.27 709.29 836.27 753.03"/>
    <polygon class="st1" points="874.28 839.51 912.29 818.55 912.29 774.82 874.28 795.77 874.28 839.51"/>
  </g>
  <g>
    <polygon class="st0" points="950.3 796.51 912.29 775.55 912.29 731.82 950.3 752.77 950.3 796.51"/>
    <polygon class="st2" points="988.31 860.41 950.3 839.45 950.3 795.72 988.31 816.67 988.31 860.41"/>
    <polygon class="st1" points="950.3 753.03 988.31 732.07 988.31 688.34 950.3 709.29 950.3 753.03"/>
    <polygon class="st1" points="988.31 839.51 1026.33 818.55 1026.33 774.82 988.31 795.77 988.31 839.51"/>
  </g>
  <g>
    <polygon class="st0" points="1064.34 796.51 1026.33 775.55 1026.33 731.82 1064.34 752.77 1064.34 796.51"/>
    <polygon class="st2" points="1102.35 860.41 1064.34 839.45 1064.34 795.72 1102.35 816.67 1102.35 860.41"/>
    <polygon class="st1" points="1064.34 753.03 1102.35 732.07 1102.35 688.34 1064.34 709.29 1064.34 753.03"/>
    <polygon class="st1" points="1102.35 839.51 1140.36 818.55 1140.36 774.82 1102.35 795.77 1102.35 839.51"/>
  </g>
  <g>
    <polygon class="st0" points="1178.38 796.51 1140.36 775.55 1140.36 731.82 1178.38 752.77 1178.38 796.51"/>
    <polygon class="st2" points="1216.39 860.41 1178.38 839.45 1178.38 795.72 1216.39 816.67 1216.39 860.41"/>
    <polygon class="st1" points="1178.38 753.03 1216.39 732.07 1216.39 688.34 1178.38 709.29 1178.38 753.03"/>
    <polygon class="st1" points="1216.39 839.51 1254.4 818.55 1254.4 774.82 1216.39 795.77 1216.39 839.51"/>
  </g>
  <g>
    <polygon class="st0" points="1292.41 796.51 1254.4 775.55 1254.4 731.82 1292.41 752.77 1292.41 796.51"/>
    <polygon class="st2" points="1330.42 860.41 1292.41 839.45 1292.41 795.72 1330.42 816.67 1330.42 860.41"/>
    <polygon class="st1" points="1292.41 753.03 1330.42 732.07 1330.42 688.34 1292.41 709.29 1292.41 753.03"/>
    <polygon class="st1" points="1330.42 839.51 1368.44 818.55 1368.44 774.82 1330.42 795.77 1330.42 839.51"/>
  </g>
</svg>