<?xml version="1.0" encoding="UTF-8"?>
<svg width="425px" height="120px" viewBox="0 0 425 120" version="1.1" xmlns="http://www.w3.org/2000/svg" xmlns:xlink="http://www.w3.org/1999/xlink">
    <title>Group</title>
    <defs>
        <radialGradient cx="46.666434%" cy="49.943263%" fx="46.666434%" fy="49.943263%" r="108.21847%" id="radialGradient-1">
            <stop stop-color="#F1E510" offset="0%"></stop>
            <stop stop-color="#FFCC04" offset="44%"></stop>
            <stop stop-color="#F49739" offset="83%"></stop>
        </radialGradient>
    </defs>
    <g id="Page-1" stroke="none" stroke-width="1" fill="none" fill-rule="evenodd">
        <g id="240227-LOGO_BASAN_VECTOR" transform="translate(-958, -875)" fill-rule="nonzero">
            <g id="Group" transform="translate(958.27, 875.83)">
                <circle id="Oval" fill="url(#radialGradient-1)" cx="395.17" cy="29.02" r="29.02"></circle>
                <path d="M322.68,63.71 C322.73,40.69 336.39,26.28 360.92,26.3398134 C385.44,26.4 399.03,40.87 398.980137,63.9 L398.85,117.31 L376.78,117.26 L376.91,63.85 C376.94,52.95 371.77,46.81 360.88,46.78 C349.98,46.75 344.79,52.87 344.76,63.77 L344.63,117.18 L322.56,117.13 L322.69,63.72 L322.68,63.71 Z" id="Path" fill="#184F50"></path>
                <path d="M64.78,79.33 C67.82,83.25 69.34,87.73 69.3201948,92.76 C69.3,100.02 66.75,105.76 61.67,110 C56.59,114.24 49.51,116.34 40.44,116.320142 L5.68434189e-14,116.22 L0.21,29.4 L39.29,29.49 C48.11,29.51 55.01,31.55 59.99,35.6 C64.97,39.65 67.45,45.14 67.43,52.07 C67.42,57.18 66.07,61.43 63.38,64.8 C60.69,68.18 57.12,70.52 52.66,71.82 C57.69,72.9 61.72,75.41 64.76,79.33 L64.78,79.33 Z M21.28,64.58 L35.13,64.61 C38.59,64.61 41.25,63.86 43.11,62.34 C44.97,60.82 45.9,58.57 45.91,55.61 C45.91,52.64 44.99,50.37 43.14,48.8 C41.29,47.23 38.63,46.44 35.17,46.43 L21.32,46.4 L21.28,64.58 Z M45.01,96.85 C46.95,95.25 47.93,92.92 47.93,89.87 C47.93,86.82 46.93,84.42 44.92,82.69 C42.9,80.95 40.12,80.08 36.58,80.07 L21.24,80.03 L21.19,99.2 L36.77,99.24 C40.31,99.24 43.06,98.45 45,96.85 L45.01,96.85 Z" id="Shape" fill="#184F50"></path>
                <path d="M129.34,101.19 L96.94,101.11 L91.71,116.43 L69.57,116.38 L99.23,35.01 C100.41,31.78 103.48,29.63 106.92,29.6399653 L119.95,29.67 C123.39,29.67 126.45,31.84 127.61,35.07 L156.88,116.58 L134.5,116.53 L129.34,101.18 L129.34,101.19 Z M123.94,84.86 L113.26,53.05 L102.55,84.81 L123.95,84.86 L123.94,84.86 Z" id="Shape" fill="#184F50"></path>
                <path d="M175.12,115.12 C169.69,113.03 165.36,109.94 162.12,105.85 C158.88,101.77 157.18,96.85 157.01,91.11 L181.31,91.17 C181.66,94.42 182.85,96.9 184.9,98.61 C186.94,100.32 189.61,101.18 192.91,101.19 C196.21,101.2 198.96,100.48 200.93,99.02 C202.89,97.57 203.88,95.55 203.88,92.97 C203.88,90.81 203.11,89.02 201.55,87.6 C200,86.18 198.09,85.01 195.82,84.09 C193.55,83.17 190.33,82.12 186.15,80.95 C180.1,79.19 175.16,77.43 171.34,75.67 C167.52,73.91 164.23,71.33 161.48,67.91 C158.73,64.49 157.36,60.04 157.37,54.54 C157.39,46.39 160.56,40.01 166.9,35.4 C173.23,30.8 181.47,28.51 191.62,28.5298701 C201.95,28.55 210.26,30.88 216.57,35.52 C222.88,40.16 226.25,46.59 226.67,54.83 L201.97,54.77 C201.8,51.94 200.69,49.71 198.65,48.08 C196.6,46.45 193.98,45.63 190.78,45.63 C188.02,45.63 185.79,46.3 184.1,47.67 C182.41,49.04 181.56,51.01 181.55,53.59 C181.55,56.42 182.96,58.63 185.81,60.22 C188.65,61.81 193.1,63.53 199.15,65.37 C205.2,67.3 210.11,69.14 213.89,70.9 C217.67,72.66 220.93,75.2 223.69,78.54 C226.44,81.88 227.81,86.16 227.800054,91.41 C227.79,96.4 226.42,100.94 223.7,105.01 C220.97,109.08 217.03,112.32 211.86,114.72 C206.69,117.12 200.59,118.31 193.56,118.300062 C186.7,118.28 180.56,117.23 175.14,115.14 L175.12,115.12 Z" id="Path" fill="#184F50"></path>
                <path d="M287.48,101.57 L255.08,101.49 L249.85,116.81 L227.71,116.76 L257.38,35.37 C258.55,32.16 261.61,30.02 265.03,30.0299651 L278.12,30.06 C281.54,30.06 284.59,32.22 285.75,35.44 L315.03,116.97 L292.65,116.92 L287.49,101.57 L287.48,101.57 Z M282.08,85.23 L271.4,53.42 L260.69,85.18 L282.09,85.23 L282.08,85.23 Z" id="Shape" fill="#184F50"></path>
            </g>
        </g>
    </g>
</svg>